<svg width="96" height="150" viewBox="0 0 96 150" fill="none" xmlns="http://www.w3.org/2000/svg">
<path d="M39.5269 3C36.3697 3.74111 33.1363 6.40327 30.4467 8.15699C26.4406 10.7692 26.4404 15.2072 26.0579 19.7025C25.1256 30.6615 35.6255 36.2202 44.8994 38.7141C48.3636 39.6456 52.1072 38.0798 55.3795 37.1747C61.5588 35.4654 67.2945 34.7611 68.8107 27.8613C69.6501 24.0416 71.281 14.6047 68.2054 11.8515C63.8752 7.97545 54.7092 6.46365 49.0612 6.46365C44.4881 6.46365 39.9618 5.77092 35.4408 5.77092" stroke="white" stroke-width="6"/>
<path d="M46.5892 48C46.5892 67.4885 47.8294 87.6024 46 107" stroke="white" stroke-width="6"/>
<path d="M40 63C32.9406 64.4492 21.3888 71.6779 18.2095 78.4655C17.0216 81.0015 16 85.1995 16 88" stroke="white" stroke-width="6"/>
<path d="M55.1132 68.5466C61.9711 59.0725 68.4151 46.6457 79.1919 40.9364C83.2327 38.7958 87.6479 37.2432 91.7054 35.1653" stroke="white" stroke-width="6"/>
<path d="M40 109C29.604 123.623 15.2639 134.405 3 147" stroke="white" stroke-width="6"/>
<path d="M55 116C56.8341 123.28 61.5359 131.693 65.963 137.74C67.401 139.704 69.1163 142.714 71 144" stroke="white" stroke-width="6"/>
<path d="M42 26.665C42 28.5874 46.1808 29.99 48.2609 29.99C53.6829 29.99 57.4116 30.3988 60 26" stroke="#D9D9D9" stroke-width="6"/>
<path d="M42 18H45" stroke="#D9D9D9" stroke-width="6"/>
<path d="M57 18H61" stroke="#D9D9D9" stroke-width="6"/>
</svg>
