<svg width="160" height="268" viewBox="0 0 160 268" fill="none" xmlns="http://www.w3.org/2000/svg">
<path d="M104.22 13.1037C88.7182 7.85295 67.0124 -2.88823 52.7471 10.0091C36.6327 24.5783 30.534 47.315 23.5033 67.0011C11.075 101.8 18.6306 137.907 12.827 173.558C9.24127 195.584 11.6348 218.414 9.52607 240.556C8.99207 246.163 4.88419 249.853 4.88419 255.874C4.88419 259.783 3.95581 263.549 3.95581 267.479" stroke="white" stroke-width="6"/>
<path d="M98.6501 46.5252C94.3462 47.5184 89.9382 51.0862 86.2718 53.4364C80.8106 56.9372 80.8103 62.8849 80.2889 68.9094C79.0179 83.5963 93.3316 91.0459 105.974 94.3881C110.696 95.6366 115.8 93.5381 120.261 92.3251C128.684 90.0344 136.503 89.0905 138.57 79.8436C139.715 74.7245 141.938 62.0775 137.745 58.3878C131.842 53.1932 119.347 51.1671 111.647 51.1671C105.413 51.1671 99.2429 50.2387 93.0799 50.2387" stroke="white" stroke-width="6"/>
<path d="M107.934 107.798C107.934 133.864 109.888 160.766 107.005 186.71" stroke="white" stroke-width="6"/>
<path d="M99.5785 127.294C90.0209 129.285 74.3811 139.217 70.0768 148.543C68.4685 152.028 67.0853 157.796 67.0853 161.644" stroke="white" stroke-width="6"/>
<path d="M119.074 128.222C130.334 139.318 145.622 150.464 151.052 166.028C153.087 171.864 154.261 178.079 156.209 183.925" stroke="white" stroke-width="6"/>
<path d="M98.6501 190.423C84.5643 209.715 65.1345 223.939 48.5178 240.556" stroke="white" stroke-width="6"/>
<path d="M119.074 198.779C121.628 208.676 128.176 220.112 134.341 228.332C136.344 231.002 138.732 235.093 141.355 236.842" stroke="white" stroke-width="6"/>
<path d="M96.1512 68.6956C96.2934 67.558 97.549 66.9957 98.4553 66.3915" stroke="#D9D9D9" stroke-width="6"/>
<path d="M118.039 67.5436C119.639 67.5436 120.193 67.2597 121.495 66.3915" stroke="#D9D9D9" stroke-width="6"/>
<path d="M100.759 79.0637C106.357 73.1159 116.887 73.7832 116.887 83.6717" stroke="#D9D9D9" stroke-width="6"/>
</svg>
