<svg width="175" height="22" viewBox="0 0 175 22" fill="none" xmlns="http://www.w3.org/2000/svg">
<path d="M15.2 1.192V4.456H9.984V21H6.016V4.456H0.8V1.192H15.2ZM30.56 1.192V21H26.624V12.264H21.376V21H17.44V1.192H21.376V9H26.624V1.192H30.56ZM34.016 21V1.192H46.016V4.456H37.952V8.904H44.96V12.168H37.952V17.736H46.72V21H34.016ZM133.152 1.192C133.301 1.64 133.483 2.216 133.696 2.92C133.931 3.624 134.176 4.38133 134.432 5.192C134.688 6.00267 134.944 6.824 135.2 7.656C135.456 8.488 135.701 9.256 135.936 9.96C136.192 9.17067 136.459 8.36 136.736 7.528C137.013 6.67467 137.28 5.864 137.536 5.096C137.792 4.30667 138.027 3.57067 138.24 2.888C138.453 2.20533 138.645 1.64 138.816 1.192H142.08C142.229 2.92 142.368 4.60533 142.496 6.248C142.645 7.89067 142.763 9.52267 142.848 11.144C142.955 12.744 143.04 14.3653 143.104 16.008C143.168 17.6293 143.221 19.2933 143.264 21H139.648L139.84 5.608L137.408 13.992H134.528L132.192 5.608L132.352 21H128.736C128.8 19.3787 128.864 17.6933 128.928 15.944C129.013 14.1947 129.099 12.456 129.184 10.728C129.269 9 129.365 7.32533 129.472 5.704C129.6 4.08267 129.739 2.57867 129.888 1.192H133.152ZM155.488 21L154.56 16.424H149.28L148.384 21H144.288C145.227 17.096 146.176 13.544 147.136 10.344C148.096 7.12267 149.024 4.072 149.92 1.192H154.208C155.147 4.09333 156.075 7.176 156.992 10.44C157.931 13.6827 158.837 17.2027 159.712 21H155.488ZM151.968 5.032C151.755 5.77867 151.552 6.49333 151.36 7.176C151.189 7.83733 151.019 8.49867 150.848 9.16C150.699 9.8 150.549 10.4507 150.4 11.112C150.272 11.7733 150.144 12.456 150.016 13.16H153.888C153.76 12.456 153.632 11.7733 153.504 11.112C153.376 10.4507 153.227 9.8 153.056 9.16C152.907 8.49867 152.736 7.83733 152.544 7.176C152.373 6.49333 152.181 5.77867 151.968 5.032ZM171.36 21C170.464 18.8027 169.483 16.616 168.416 14.44C167.371 12.2427 166.24 10.0453 165.024 7.848V21H161.472V1.192H164.64C165.237 2.13067 165.835 3.15467 166.432 4.264C167.029 5.352 167.605 6.44 168.16 7.528C168.736 8.616 169.259 9.672 169.728 10.696C170.219 11.72 170.635 12.616 170.976 13.384V1.192H174.528V21H171.36Z" fill="white"/>
<path d="M78.56 1.192V21H74.624V12.264H69.376V21H65.44V1.192H69.376V9H74.624V1.192H78.56ZM91.488 21L90.56 16.424H85.28L84.384 21H80.288C81.2267 17.096 82.176 13.544 83.136 10.344C84.096 7.12267 85.024 4.072 85.92 1.192H90.208C91.1467 4.09333 92.0747 7.176 92.992 10.44C93.9307 13.6827 94.8373 17.2027 95.712 21H91.488ZM87.968 5.032C87.7547 5.77867 87.552 6.49333 87.36 7.176C87.1893 7.83733 87.0187 8.49867 86.848 9.16C86.6987 9.8 86.5493 10.4507 86.4 11.112C86.272 11.7733 86.144 12.456 86.016 13.16H89.888C89.76 12.456 89.632 11.7733 89.504 11.112C89.376 10.4507 89.2267 9.8 89.056 9.16C88.9067 8.49867 88.736 7.83733 88.544 7.176C88.3733 6.49333 88.1813 5.77867 87.968 5.032ZM107.36 21C106.464 18.8027 105.483 16.616 104.416 14.44C103.371 12.2427 102.24 10.0453 101.024 7.848V21H97.472V1.192H100.64C101.237 2.13067 101.835 3.15467 102.432 4.264C103.029 5.352 103.605 6.44 104.16 7.528C104.736 8.616 105.259 9.672 105.728 10.696C106.219 11.72 106.635 12.616 106.976 13.384V1.192H110.528V21H107.36ZM121.984 4.168C121.045 4.168 120.256 4.33867 119.616 4.68C118.976 5.02133 118.443 5.50133 118.016 6.12C117.611 6.71733 117.312 7.44267 117.12 8.296C116.949 9.128 116.864 10.056 116.864 11.08C116.864 13.448 117.237 15.1973 117.984 16.328C118.731 17.4373 119.829 17.992 121.28 17.992C121.515 17.992 121.771 17.9813 122.048 17.96C122.325 17.9387 122.581 17.9067 122.816 17.864V10.632H126.752V20.52C126.283 20.6907 125.547 20.8827 124.544 21.096C123.563 21.3093 122.368 21.416 120.96 21.416C119.723 21.416 118.603 21.2027 117.6 20.776C116.619 20.328 115.776 19.6773 115.072 18.824C114.368 17.9493 113.824 16.872 113.44 15.592C113.056 14.2907 112.864 12.7867 112.864 11.08C112.864 9.39467 113.088 7.912 113.536 6.632C113.984 5.33067 114.592 4.24267 115.36 3.368C116.128 2.49333 117.035 1.84267 118.08 1.416C119.125 0.967999 120.245 0.743999 121.44 0.743999C122.208 0.743999 122.891 0.807999 123.488 0.935999C124.107 1.04267 124.64 1.17067 125.088 1.32C125.536 1.46933 125.899 1.62933 126.176 1.8C126.475 1.97067 126.699 2.09867 126.848 2.184L125.824 5.32C125.355 5.02133 124.779 4.75467 124.096 4.52C123.413 4.28533 122.709 4.168 121.984 4.168Z" fill="#DB1F48"/>
</svg>
