<svg width="131" height="200" viewBox="0 0 131 200" fill="none" xmlns="http://www.w3.org/2000/svg">
<path d="M52.6501 3.52521C48.3462 4.51843 43.9382 8.08616 40.2718 10.4364C34.8106 13.9372 34.8103 19.8849 34.2889 25.9094C33.0179 40.5963 47.3316 48.0459 59.974 51.3881C64.6964 52.6366 69.7998 50.5381 74.2606 49.3251C82.6843 47.0344 90.5033 46.0905 92.5703 36.8436C93.7145 31.7245 95.9379 19.0775 91.7451 15.3878C85.8421 10.1932 73.3469 8.16709 65.6474 8.16709C59.4133 8.16709 53.2429 7.23871 47.0799 7.23871" stroke="white" stroke-width="6"/>
<path d="M61.9339 64.798C61.9339 90.8636 63.8882 117.766 61.0055 143.71" stroke="white" stroke-width="6"/>
<path d="M11.7122 58.8733C13.8564 68.3978 24.0382 83.8762 33.4322 88.0304C36.942 89.5825 42.7315 90.873 46.5789 90.8113" stroke="white" stroke-width="6"/>
<path d="M128.977 68.5854C117.18 79.1071 105.073 93.6469 89.1919 98.0631C83.2372 99.7189 76.9587 100.49 71 102.058" stroke="white" stroke-width="6"/>
<path d="M52.6501 147.423C38.5643 166.715 19.1345 180.939 2.51782 197.556" stroke="white" stroke-width="6"/>
<path d="M73.0743 155.779C75.6284 165.676 82.176 177.112 88.341 185.332C90.3436 188.002 92.7323 192.093 95.3554 193.842" stroke="white" stroke-width="6"/>
<path d="M50.1512 25.6956C50.2934 24.558 51.549 23.9957 52.4553 23.3915" stroke="#D9D9D9" stroke-width="6"/>
<path d="M72.0394 24.5436C73.6392 24.5436 74.1932 24.2597 75.4955 23.3915" stroke="#D9D9D9" stroke-width="6"/>
<path d="M70.877 37.0435C65.153 42.87 54.6394 41.9773 54.8512 32.091" stroke="#D9D9D9" stroke-width="6"/>
</svg>
